<svg xmlns="http://www.w3.org/2000/svg" xmlns:xlink="http://www.w3.org/1999/xlink" version="1.1" x="0px" y="0px" viewBox="0 0 64 80" style="enable-background:new 0 0 64 64;" xml:space="preserve"><path d="M62,31h-7v-2h1c0.6,0,1-0.4,1-1v-4c0-0.6-0.4-1-1-1h-9v-4.8c0-1.8-1.4-3.2-3.2-3.2H20.2c-1.8,0-3.2,1.4-3.2,3.2V23H8  c-0.6,0-1,0.4-1,1v4c0,0.6,0.4,1,1,1h1v2H2c-0.6,0-1,0.4-1,1v21.5c0,0.6,0.4,1,1,1s1-0.4,1-1V33h6v28H3v-3c0-0.6-0.4-1-1-1  s-1,0.4-1,1v4c0,0.6,0.4,1,1,1h60c0.6,0,1-0.4,1-1V40.3c0-0.6-0.4-1-1-1s-1,0.4-1,1V61h-6V33h6v3c0,0.6,0.4,1,1,1s1-0.4,1-1v-4  C63,31.4,62.6,31,62,31z M9,25h8v2H9V25z M15,61h-4V29h4V61z M31,61h-2V42c0-0.6-0.4-1-1-1s-1,0.4-1,1v19h-2v-3c0-0.6-0.4-1-1-1  s-1,0.4-1,1v3h-2V44c0-2.3,0.7-4.5,2-6.3v16.6c0,0.6,0.4,1,1,1s1-0.4,1-1V35.5c0.6-0.5,1.3-0.9,2-1.3V38c0,0.6,0.4,1,1,1s1-0.4,1-1  v-4.6c0.6-0.2,1.3-0.3,2-0.4V61z M39,61h-2v-9c0-0.6-0.4-1-1-1s-1,0.4-1,1v9h-2V33.1c0.7,0.1,1.4,0.2,2,0.4V48c0,0.6,0.4,1,1,1  s1-0.4,1-1V34.2c0.7,0.4,1.4,0.8,2,1.3V61z M43,61h-2V37.7c1.3,1.8,2,4,2,6.3V61z M47,61h-2V44c0-7.2-5.8-13-13-13  c-7.2,0-13,5.8-13,13v17h-2V29h21c0.6,0,1-0.4,1-1s-0.4-1-1-1H19v-8.8c0-0.7,0.5-1.2,1.2-1.2h23.6c0.7,0,1.2,0.5,1.2,1.2V27h-3  c-0.6,0-1,0.4-1,1s0.4,1,1,1h5V61z M53,61h-4V29h4V61z M47,27v-2h8v2H47z"/><path d="M26,23h-1.6l2.3-2.3c0.3-0.3,0.4-0.7,0.2-1.1C26.8,19.2,26.4,19,26,19h-4c-0.6,0-1,0.4-1,1s0.4,1,1,1h1.6l-2.3,2.3  c-0.3,0.3-0.4,0.7-0.2,1.1c0.2,0.4,0.5,0.6,0.9,0.6h4c0.6,0,1-0.4,1-1S26.6,23,26,23z"/><path d="M32,19c-1.7,0-3,1.3-3,3s1.3,3,3,3s3-1.3,3-3S33.7,19,32,19z M32,23c-0.6,0-1-0.4-1-1s0.4-1,1-1c0.6,0,1,0.4,1,1  S32.6,23,32,23z"/><path d="M43,22c0-1.7-1.3-3-3-3s-3,1.3-3,3s1.3,3,3,3S43,23.7,43,22z M40,23c-0.6,0-1-0.4-1-1s0.4-1,1-1s1,0.4,1,1S40.6,23,40,23z"/><path d="M12,3c3.7,0,7,4.1,8.4,10.2c0.1,0.5,0.6,0.9,1.2,0.8c0.5-0.1,0.9-0.7,0.8-1.2C20.8,5.6,16.7,1,12,1c-0.6,0-1,0.4-1,1  S11.4,3,12,3z"/><path d="M4.3,29.8C4.8,29.6,5,29,4.8,28.5C3.6,25.7,3,22.4,3,19C3,12.5,5.2,6.7,8.6,4.2c0.4-0.3,0.5-1,0.2-1.4  c-0.3-0.4-1-0.5-1.4-0.2C3.5,5.5,1,11.9,1,19c0,3.7,0.7,7.3,1.9,10.3C3.1,29.7,3.6,30,4.3,29.8z"/><path d="M16.7,8.7c0.4-0.4,0.4-1,0-1.4s-1-0.4-1.4,0l-3.5,3.5L8.4,9.1C8,8.9,7.4,9.1,7.1,9.6c-0.2,0.5,0,1.1,0.4,1.3l3.4,1.7v3.5  l-4.4-3c-0.5-0.3-1.1-0.2-1.4,0.3c-0.3,0.5-0.2,1.1,0.3,1.4l5.6,3.7v2.2c0,0.6,0.4,1,1,1c1.4,0,1-1.3,1-1.3l1.7-1.7  c0.4-0.4,0.3-1,0-1.4C14,16.4,13,17.6,13,17.6v-5.2L16.7,8.7z"/><path d="M42.4,14c0.5,0.1,1.1-0.2,1.2-0.8C45,7.1,48.3,3,52,3c4.9,0,9,7.3,9,16c0,3.4-0.6,6.7-1.8,9.5c-0.2,0.5,0,1.1,0.5,1.3  c0.6,0.2,1.1-0.2,1.3-0.5c1.3-3,1.9-6.6,1.9-10.3C63,8.9,58.2,1,52,1c-4.7,0-8.7,4.6-10.3,11.8C41.5,13.3,41.9,13.9,42.4,14z"/><path d="M52,21.8c0.6,0,1-0.4,1-1v-2.2l5.6-3.7c0.5-0.3,0.6-0.9,0.3-1.4c-0.3-0.5-0.9-0.6-1.4-0.3l-4.4,3v-3.5l3.4-1.7  c0.5-0.2,0.7-0.8,0.4-1.3c-0.2-0.5-0.8-0.7-1.3-0.4l-3.4,1.7l-3.5-3.5c-0.4-0.4-1-0.4-1.4,0s-0.4,1,0,1.4l3.7,3.7v5.2  c0,0-0.7-1.2-1.7-0.3c-0.4,0.4-0.4,1,0,1.4l1.7,1.7C51,20.4,50.8,21.8,52,21.8z"/><path d="M22,31h-2c-0.6,0-1,0.4-1,1v2c0,0.6,0.4,1,1,1s1-0.4,1-1v-1h1c0.6,0,1-0.4,1-1C23,31.4,22.6,31,22,31z"/><path d="M6,39c0.6,0,1-0.4,1-1v-2c0-0.6-0.4-1-1-1s-1,0.4-1,1v2C5,38.6,5.4,39,6,39z"/><path d="M5,58c0,0.6,0.4,1,1,1s1-0.4,1-1V42c0-0.6-0.4-1-1-1s-1,0.4-1,1V58z"/><path d="M59,36c0-0.6-0.4-1-1-1s-1,0.4-1,1v12c0,0.6,0.4,1,1,1s1-0.4,1-1V36z"/><path d="M58,51c-0.6,0-1,0.4-1,1v6c0,0.6,0.4,1,1,1s1-0.4,1-1v-6C59,51.4,58.6,51,58,51z"/><text x="0" y="79" fill="#000000" font-size="5px" font-weight="bold" font-family="'Helvetica Neue', Helvetica, Arial-Unicode, Arial, Sans-serif">Created by HAMEL KHALED</text><text x="0" y="84" fill="#000000" font-size="5px" font-weight="bold" font-family="'Helvetica Neue', Helvetica, Arial-Unicode, Arial, Sans-serif">from the Noun Project</text></svg>